<?xml version="1.0" encoding="UTF-8"?>
<svg width="320px" height="56px" viewBox="0 0 320 56" version="1.1" xmlns="http://www.w3.org/2000/svg" xmlns:xlink="http://www.w3.org/1999/xlink">
    <defs></defs>
    <g id="Page-1" stroke="none" stroke-width="1" fill="none" fill-rule="evenodd">
        <g id="Startseite-Slider-1" transform="translate(-210.000000, -22.000000)">
            <g id="Navi">
                <g id="logo_oegi" transform="translate(210.000000, 22.000000)">
                    <path d="M24.979,18.575 L16.787,18.575 C15.258,18.575 15.039,19.143 15.039,20.672 L15.039,38.149 C15.039,39.678 15.258,40.246 16.787,40.246 L24.979,40.246 C26.508,40.246 26.727,39.678 26.727,38.149 L26.727,20.672 C26.727,19.143 26.508,18.575 24.979,18.575" id="Fill-1" fill="#49879A"></path>
                    <path d="M31.97,38.149 C31.97,43.392 30.222,45.139 24.979,45.139 L16.787,45.139 C11.544,45.139 9.796,43.392 9.796,38.149 L9.796,20.672 C9.796,15.429 11.544,13.682 16.787,13.682 L24.979,13.682 C30.222,13.682 31.97,15.429 31.97,20.672 L31.97,38.149 L31.97,38.149 Z M14.602,10.186 L18.097,10.186 L18.097,5.817 L14.602,5.817 L14.602,10.186 Z M23.668,10.186 L27.163,10.186 L27.163,5.817 L23.668,5.817 L23.668,10.186 Z M33.271,0.41 L8.501,0.41 C3.992,0.41 0.337,4.065 0.337,8.573 L0.337,54.684 L41.434,54.684 L41.434,8.573 C41.434,4.065 37.779,0.41 33.271,0.41 L33.271,0.41 Z" id="Fill-2" fill="#49879A"></path>
                    <path d="M76.015,24.168 L70.772,24.168 L70.772,20.672 C70.772,19.143 70.554,18.575 69.025,18.575 L60.832,18.575 C59.303,18.575 59.085,19.143 59.085,20.672 L59.085,38.149 C59.085,39.678 59.303,40.246 60.832,40.246 L69.025,40.246 C70.554,40.246 70.772,39.678 70.772,38.149 L70.772,33.479 L64.929,33.479 L64.929,28.586 L76.015,28.586 L76.015,38.149 C76.015,43.392 74.268,45.139 69.025,45.139 L60.832,45.139 C55.589,45.139 53.842,43.392 53.842,38.149 L53.842,20.672 C53.842,15.429 55.589,13.682 60.832,13.682 L69.025,13.682 C74.268,13.682 76.015,15.429 76.015,20.672 L76.015,24.168 L76.015,24.168 Z M77.316,0.41 L52.546,0.41 C48.038,0.41 44.383,4.065 44.383,8.573 L44.383,54.684 L85.479,54.684 L85.479,8.573 C85.479,4.065 81.824,0.41 77.316,0.41 L77.316,0.41 Z" id="Fill-3" fill="#49879A"></path>
                    <path d="M121.361,0.41 L96.592,0.41 C92.083,0.41 88.428,4.065 88.428,8.573 L88.428,54.684 L106.353,54.684 L106.353,13.682 L111.595,13.682 L111.595,54.684 L129.525,54.684 L129.525,8.573 C129.525,4.065 125.87,0.41 121.361,0.41" id="Fill-4" fill="#A9AAA9"></path>
                    <path d="M139.72,1.73 L140.777,1.73 L140.777,0.41 L139.72,0.41 L139.72,1.73 Z M140.645,4.897 C140.645,4.436 140.579,4.264 140.117,4.264 L138.533,4.264 C138.071,4.264 138.005,4.436 138.005,4.897 L138.005,10.177 C138.005,10.639 138.071,10.811 138.533,10.811 L140.117,10.811 C140.579,10.811 140.645,10.639 140.645,10.177 L140.645,4.897 L140.645,4.897 Z M137.873,1.73 L138.929,1.73 L138.929,0.41 L137.873,0.41 L137.873,1.73 Z M142.228,4.897 L142.228,10.177 C142.228,11.761 141.701,12.289 140.117,12.289 L138.533,12.289 C136.949,12.289 136.421,11.761 136.421,10.177 L136.421,4.897 C136.421,3.314 136.949,2.786 138.533,2.786 L140.117,2.786 C141.701,2.786 142.228,3.314 142.228,4.897 L142.228,4.897 Z" id="Fill-5" fill="#49879A"></path>
                    <path d="M148.697,5.822 L148.697,4.897 C148.697,4.436 148.63,4.264 148.169,4.264 L146.585,4.264 C146.123,4.264 146.057,4.436 146.057,4.897 L146.057,6.218 C146.057,6.68 146.123,6.798 146.585,6.798 L148.169,6.798 C149.753,6.798 150.281,7.273 150.281,8.857 L150.281,10.177 C150.281,11.761 149.753,12.289 148.169,12.289 L146.585,12.289 C145.001,12.289 144.473,11.761 144.473,10.177 L144.473,9.253 L146.057,9.253 L146.057,10.177 C146.057,10.639 146.123,10.811 146.585,10.811 L148.169,10.811 C148.63,10.811 148.697,10.639 148.697,10.177 L148.697,8.857 C148.697,8.396 148.63,8.276 148.169,8.276 L146.585,8.276 C145.001,8.276 144.473,7.801 144.473,6.218 L144.473,4.897 C144.473,3.314 145.001,2.786 146.585,2.786 L148.169,2.786 C149.753,2.786 150.281,3.314 150.281,4.897 L150.281,5.822 L148.697,5.822" id="Fill-6" fill="#49879A"></path>
                    <polyline id="Fill-7" fill="#49879A" points="157.804 4.264 155.693 4.264 155.693 12.289 154.109 12.289 154.109 4.264 151.997 4.264 151.997 2.786 157.804 2.786 157.804 4.264"></polyline>
                    <polyline id="Fill-8" fill="#49879A" points="161.303 4.264 161.303 6.798 164.867 6.798 164.867 8.276 161.303 8.276 161.303 10.811 164.999 10.811 164.999 12.289 159.719 12.289 159.719 2.786 164.999 2.786 164.999 4.264 161.303 4.264"></polyline>
                    <path d="M168.959,7.854 L171.07,7.854 C171.532,7.854 171.598,7.735 171.598,7.273 L171.598,4.897 C171.598,4.436 171.532,4.264 171.07,4.264 L168.959,4.264 L168.959,7.854 L168.959,7.854 Z M171.744,9.293 L173.182,12.289 L171.426,12.289 L170.002,9.333 L168.959,9.333 L168.959,12.289 L167.375,12.289 L167.375,2.786 L171.07,2.786 C172.654,2.786 173.182,3.314 173.182,4.897 L173.182,7.273 C173.182,8.606 172.812,9.161 171.744,9.293 L171.744,9.293 Z" id="Fill-9" fill="#49879A"></path>
                    <path d="M177.142,7.854 L179.254,7.854 C179.715,7.854 179.782,7.735 179.782,7.273 L179.782,4.897 C179.782,4.436 179.715,4.264 179.254,4.264 L177.142,4.264 L177.142,7.854 L177.142,7.854 Z M179.927,9.293 L181.366,12.289 L179.61,12.289 L178.185,9.333 L177.142,9.333 L177.142,12.289 L175.558,12.289 L175.558,2.786 L179.254,2.786 C180.838,2.786 181.366,3.314 181.366,4.897 L181.366,7.273 C181.366,8.606 180.996,9.161 179.927,9.293 L179.927,9.293 Z" id="Fill-10" fill="#49879A"></path>
                    <polyline id="Fill-11" fill="#49879A" points="185.327 4.264 185.327 6.798 188.89 6.798 188.89 8.276 185.327 8.276 185.327 10.811 189.022 10.811 189.022 12.289 183.743 12.289 183.743 2.786 189.022 2.786 189.022 4.264 185.327 4.264"></polyline>
                    <polygon id="Fill-12" fill="#49879A" points="191.398 12.289 192.982 12.289 192.982 2.786 191.398 2.786"></polygon>
                    <path d="M201.232,9.121 L201.232,10.177 C201.232,11.761 200.704,12.289 199.12,12.289 L197.536,12.289 C195.952,12.289 195.424,11.761 195.424,10.177 L195.424,4.897 C195.424,3.314 195.952,2.786 197.536,2.786 L199.12,2.786 C200.704,2.786 201.232,3.314 201.232,4.897 L201.232,5.954 L199.648,5.954 L199.648,4.897 C199.648,4.436 199.582,4.264 199.12,4.264 L197.536,4.264 C197.074,4.264 197.008,4.436 197.008,4.897 L197.008,10.177 C197.008,10.639 197.074,10.811 197.536,10.811 L199.12,10.811 C199.582,10.811 199.648,10.639 199.648,10.177 L199.648,9.121 L201.232,9.121" id="Fill-13" fill="#49879A"></path>
                    <polyline id="Fill-14" fill="#49879A" points="209.416 2.786 209.416 12.289 207.832 12.289 207.832 8.276 205.192 8.276 205.192 12.289 203.608 12.289 203.608 2.786 205.192 2.786 205.192 6.798 207.832 6.798 207.832 2.786 209.416 2.786"></polyline>
                    <polygon id="Fill-15" fill="#49879A" points="211.99 12.289 213.574 12.289 213.574 2.786 211.99 2.786"></polygon>
                    <path d="M220.172,5.822 L220.172,4.897 C220.172,4.436 220.107,4.264 219.645,4.264 L218.061,4.264 C217.599,4.264 217.533,4.436 217.533,4.897 L217.533,6.218 C217.533,6.68 217.599,6.798 218.061,6.798 L219.645,6.798 C221.228,6.798 221.756,7.273 221.756,8.857 L221.756,10.177 C221.756,11.761 221.228,12.289 219.645,12.289 L218.061,12.289 C216.477,12.289 215.949,11.761 215.949,10.177 L215.949,9.253 L217.533,9.253 L217.533,10.177 C217.533,10.639 217.599,10.811 218.061,10.811 L219.645,10.811 C220.107,10.811 220.172,10.639 220.172,10.177 L220.172,8.857 C220.172,8.396 220.107,8.276 219.645,8.276 L218.061,8.276 C216.477,8.276 215.949,7.801 215.949,6.218 L215.949,4.897 C215.949,3.314 216.477,2.786 218.061,2.786 L219.645,2.786 C221.228,2.786 221.756,3.314 221.756,4.897 L221.756,5.822 L220.172,5.822" id="Fill-16" fill="#49879A"></path>
                    <path d="M229.809,9.121 L229.809,10.177 C229.809,11.761 229.281,12.289 227.697,12.289 L226.113,12.289 C224.529,12.289 224.002,11.761 224.002,10.177 L224.002,4.897 C224.002,3.314 224.529,2.786 226.113,2.786 L227.697,2.786 C229.281,2.786 229.809,3.314 229.809,4.897 L229.809,5.954 L228.225,5.954 L228.225,4.897 C228.225,4.436 228.159,4.264 227.697,4.264 L226.113,4.264 C225.651,4.264 225.586,4.436 225.586,4.897 L225.586,10.177 C225.586,10.639 225.651,10.811 226.113,10.811 L227.697,10.811 C228.159,10.811 228.225,10.639 228.225,10.177 L228.225,9.121 L229.809,9.121" id="Fill-17" fill="#49879A"></path>
                    <polyline id="Fill-18" fill="#49879A" points="237.993 2.786 237.993 12.289 236.409 12.289 236.409 8.276 233.769 8.276 233.769 12.289 232.185 12.289 232.185 2.786 233.769 2.786 233.769 6.798 236.409 6.798 236.409 2.786 237.993 2.786"></polyline>
                    <polyline id="Fill-19" fill="#49879A" points="242.151 4.264 242.151 6.798 245.714 6.798 245.714 8.276 242.151 8.276 242.151 10.811 245.846 10.811 245.846 12.289 240.567 12.289 240.567 2.786 245.846 2.786 245.846 4.264 242.151 4.264"></polyline>
                    <path d="M140.645,19.454 L140.645,18.397 C140.645,17.936 140.579,17.764 140.117,17.764 L138.533,17.764 C138.071,17.764 138.005,17.936 138.005,18.397 L138.005,23.677 C138.005,24.139 138.071,24.311 138.533,24.311 L140.117,24.311 C140.579,24.311 140.645,24.139 140.645,23.677 L140.645,21.776 L139.325,21.776 L139.325,20.298 L142.228,20.298 L142.228,23.677 C142.228,25.261 141.701,25.789 140.117,25.789 L138.533,25.789 C136.949,25.789 136.421,25.261 136.421,23.677 L136.421,18.397 C136.421,16.814 136.949,16.286 138.533,16.286 L140.117,16.286 C141.701,16.286 142.228,16.814 142.228,18.397 L142.228,19.454 L140.645,19.454" id="Fill-20" fill="#49879A"></path>
                    <polyline id="Fill-21" fill="#49879A" points="146.255 17.764 146.255 20.298 149.819 20.298 149.819 21.776 146.255 21.776 146.255 24.311 149.951 24.311 149.951 25.789 144.671 25.789 144.671 16.286 149.951 16.286 149.951 17.764 146.255 17.764"></polyline>
                    <path d="M156.352,19.322 L156.352,18.397 C156.352,17.936 156.287,17.764 155.825,17.764 L154.241,17.764 C153.779,17.764 153.713,17.936 153.713,18.397 L153.713,19.718 C153.713,20.18 153.779,20.298 154.241,20.298 L155.825,20.298 C157.408,20.298 157.936,20.773 157.936,22.357 L157.936,23.677 C157.936,25.261 157.408,25.789 155.825,25.789 L154.241,25.789 C152.657,25.789 152.129,25.261 152.129,23.677 L152.129,22.753 L153.713,22.753 L153.713,23.677 C153.713,24.139 153.779,24.311 154.241,24.311 L155.825,24.311 C156.287,24.311 156.352,24.139 156.352,23.677 L156.352,22.357 C156.352,21.896 156.287,21.776 155.825,21.776 L154.241,21.776 C152.657,21.776 152.129,21.301 152.129,19.718 L152.129,18.397 C152.129,16.814 152.657,16.286 154.241,16.286 L155.825,16.286 C157.408,16.286 157.936,16.814 157.936,18.397 L157.936,19.322 L156.352,19.322" id="Fill-22" fill="#49879A"></path>
                    <polyline id="Fill-23" fill="#49879A" points="161.897 17.764 161.897 20.298 165.461 20.298 165.461 21.776 161.897 21.776 161.897 24.311 165.592 24.311 165.592 25.789 160.313 25.789 160.313 16.286 165.592 16.286 165.592 17.764 161.897 17.764"></polyline>
                    <polyline id="Fill-24" fill="#49879A" points="169.552 24.311 173.248 24.311 173.248 25.789 167.968 25.789 167.968 16.286 169.552 16.286 169.552 24.311"></polyline>
                    <polyline id="Fill-25" fill="#49879A" points="176.747 24.311 180.442 24.311 180.442 25.789 175.163 25.789 175.163 16.286 176.747 16.286 176.747 24.311"></polyline>
                    <path d="M186.381,19.322 L186.381,18.397 C186.381,17.936 186.316,17.764 185.854,17.764 L184.27,17.764 C183.808,17.764 183.742,17.936 183.742,18.397 L183.742,19.718 C183.742,20.18 183.808,20.298 184.27,20.298 L185.854,20.298 C187.437,20.298 187.965,20.773 187.965,22.357 L187.965,23.677 C187.965,25.261 187.437,25.789 185.854,25.789 L184.27,25.789 C182.686,25.789 182.158,25.261 182.158,23.677 L182.158,22.753 L183.742,22.753 L183.742,23.677 C183.742,24.139 183.808,24.311 184.27,24.311 L185.854,24.311 C186.316,24.311 186.381,24.139 186.381,23.677 L186.381,22.357 C186.381,21.896 186.316,21.776 185.854,21.776 L184.27,21.776 C182.686,21.776 182.158,21.301 182.158,19.718 L182.158,18.397 C182.158,16.814 182.686,16.286 184.27,16.286 L185.854,16.286 C187.437,16.286 187.965,16.814 187.965,18.397 L187.965,19.322 L186.381,19.322" id="Fill-26" fill="#49879A"></path>
                    <path d="M196.018,22.621 L196.018,23.677 C196.018,25.261 195.49,25.789 193.906,25.789 L192.322,25.789 C190.738,25.789 190.211,25.261 190.211,23.677 L190.211,18.397 C190.211,16.814 190.738,16.286 192.322,16.286 L193.906,16.286 C195.49,16.286 196.018,16.814 196.018,18.397 L196.018,19.454 L194.434,19.454 L194.434,18.397 C194.434,17.936 194.368,17.764 193.906,17.764 L192.322,17.764 C191.86,17.764 191.795,17.936 191.795,18.397 L191.795,23.677 C191.795,24.139 191.86,24.311 192.322,24.311 L193.906,24.311 C194.368,24.311 194.434,24.139 194.434,23.677 L194.434,22.621 L196.018,22.621" id="Fill-27" fill="#49879A"></path>
                    <polyline id="Fill-28" fill="#49879A" points="204.202 16.286 204.202 25.789 202.618 25.789 202.618 21.776 199.978 21.776 199.978 25.789 198.394 25.789 198.394 16.286 199.978 16.286 199.978 20.298 202.618 20.298 202.618 16.286 204.202 16.286"></polyline>
                    <path d="M210.459,22.41 L209.574,19.229 L209.508,19.229 L208.624,22.41 L210.459,22.41 L210.459,22.41 Z M212.979,25.789 L211.409,25.789 L210.88,23.889 L208.214,23.889 L207.687,25.789 L206.116,25.789 L208.755,16.286 L210.339,16.286 L212.979,25.789 L212.979,25.789 Z" id="Fill-29" fill="#49879A"></path>
                    <polyline id="Fill-30" fill="#49879A" points="214.893 25.789 214.893 16.286 220.172 16.286 220.172 17.764 216.477 17.764 216.477 20.298 220.041 20.298 220.041 21.776 216.477 21.776 216.477 25.789 214.893 25.789"></polyline>
                    <polyline id="Fill-31" fill="#49879A" points="227.565 17.764 225.454 17.764 225.454 25.789 223.87 25.789 223.87 17.764 221.757 17.764 221.757 16.286 227.565 16.286 227.565 17.764"></polyline>
                    <polyline id="Fill-32" fill="#49879A" points="234.693 25.789 234.693 16.286 239.972 16.286 239.972 17.764 236.277 17.764 236.277 20.298 239.84 20.298 239.84 21.776 236.277 21.776 236.277 25.789 234.693 25.789"></polyline>
                    <path d="M245.45,15.23 L246.506,15.23 L246.506,13.91 L245.45,13.91 L245.45,15.23 Z M243.602,15.23 L244.658,15.23 L244.658,13.91 L243.602,13.91 L243.602,15.23 Z M247.958,16.286 L247.958,23.677 C247.958,25.261 247.43,25.789 245.846,25.789 L244.262,25.789 C242.678,25.789 242.15,25.261 242.15,23.677 L242.15,16.286 L243.734,16.286 L243.734,23.677 C243.734,24.139 243.8,24.311 244.262,24.311 L245.846,24.311 C246.308,24.311 246.374,24.139 246.374,23.677 L246.374,16.286 L247.958,16.286 L247.958,16.286 Z" id="Fill-33" fill="#49879A"></path>
                    <path d="M252.05,21.354 L254.162,21.354 C254.624,21.354 254.69,21.235 254.69,20.773 L254.69,18.397 C254.69,17.936 254.624,17.764 254.162,17.764 L252.05,17.764 L252.05,21.354 L252.05,21.354 Z M254.836,22.793 L256.274,25.789 L254.518,25.789 L253.093,22.832 L252.05,22.832 L252.05,25.789 L250.466,25.789 L250.466,16.286 L254.162,16.286 C255.746,16.286 256.274,16.814 256.274,18.397 L256.274,20.773 C256.274,22.106 255.904,22.661 254.836,22.793 L254.836,22.793 Z" id="Fill-34" fill="#49879A"></path>
                    <polygon id="Fill-35" fill="#49879A" points="136.553 39.289 138.137 39.289 138.137 29.786 136.553 29.786"></polygon>
                    <polyline id="Fill-36" fill="#49879A" points="147.838 29.786 147.838 39.289 146.255 39.289 146.255 33.006 146.188 33.006 144.275 36.953 142.361 33.006 142.295 33.006 142.295 39.289 140.711 39.289 140.711 29.786 142.295 29.786 144.235 33.798 144.301 33.798 146.255 29.786 147.838 29.786"></polyline>
                    <path d="M154.636,31.897 C154.636,31.436 154.57,31.264 154.108,31.264 L151.997,31.264 L151.997,34.854 L154.108,34.854 C154.57,34.854 154.636,34.735 154.636,34.273 L154.636,31.897 L154.636,31.897 Z M156.22,31.897 L156.22,34.273 C156.22,35.857 155.692,36.333 154.108,36.333 L151.997,36.333 L151.997,39.289 L150.413,39.289 L150.413,29.786 L154.108,29.786 C155.692,29.786 156.22,30.314 156.22,31.897 L156.22,31.897 Z" id="Fill-37" fill="#49879A"></path>
                    <polyline id="Fill-38" fill="#49879A" points="160.115 37.811 163.81 37.811 163.81 39.289 158.531 39.289 158.531 29.786 160.115 29.786 160.115 37.811"></polyline>
                    <path d="M169.407,35.91 L168.522,32.729 L168.457,32.729 L167.572,35.91 L169.407,35.91 L169.407,35.91 Z M171.927,39.289 L170.357,39.289 L169.829,37.389 L167.163,37.389 L166.635,39.289 L165.064,39.289 L167.704,29.786 L169.288,29.786 L171.927,39.289 L171.927,39.289 Z" id="Fill-39" fill="#49879A"></path>
                    <polyline id="Fill-40" fill="#49879A" points="179.65 29.786 179.65 39.289 178.066 39.289 178.066 36.398 175.492 32.386 175.426 32.386 175.426 39.289 173.842 39.289 173.842 29.786 175.426 29.786 178 33.798 178.066 33.798 178.066 29.786 179.65 29.786"></polyline>
                    <polyline id="Fill-41" fill="#49879A" points="187.372 31.264 185.26 31.264 185.26 39.289 183.676 39.289 183.676 31.264 181.564 31.264 181.564 29.786 187.372 29.786 187.372 31.264"></polyline>
                    <path d="M193.378,31.897 C193.378,31.436 193.311,31.264 192.849,31.264 L191.265,31.264 C190.803,31.264 190.738,31.436 190.738,31.897 L190.738,37.177 C190.738,37.639 190.803,37.811 191.265,37.811 L192.849,37.811 C193.311,37.811 193.378,37.639 193.378,37.177 L193.378,31.897 L193.378,31.897 Z M194.962,31.897 L194.962,37.177 C194.962,38.761 194.433,39.289 192.849,39.289 L191.265,39.289 C189.681,39.289 189.154,38.761 189.154,37.177 L189.154,31.897 C189.154,30.314 189.681,29.786 191.265,29.786 L192.849,29.786 C194.433,29.786 194.962,30.314 194.962,31.897 L194.962,31.897 Z" id="Fill-42" fill="#49879A"></path>
                    <polyline id="Fill-43" fill="#49879A" points="198.988 37.811 202.683 37.811 202.683 39.289 197.404 39.289 197.404 29.786 198.988 29.786 198.988 37.811"></polyline>
                    <path d="M208.689,31.897 C208.689,31.436 208.623,31.264 208.161,31.264 L206.577,31.264 C206.115,31.264 206.049,31.436 206.049,31.897 L206.049,37.177 C206.049,37.639 206.115,37.811 206.577,37.811 L208.161,37.811 C208.623,37.811 208.689,37.639 208.689,37.177 L208.689,31.897 L208.689,31.897 Z M210.273,31.897 L210.273,37.177 C210.273,38.761 209.745,39.289 208.161,39.289 L206.577,39.289 C204.993,39.289 204.465,38.761 204.465,37.177 L204.465,31.897 C204.465,30.314 204.993,29.786 206.577,29.786 L208.161,29.786 C209.745,29.786 210.273,30.314 210.273,31.897 L210.273,31.897 Z" id="Fill-44" fill="#49879A"></path>
                    <path d="M216.807,32.954 L216.807,31.897 C216.807,31.436 216.741,31.264 216.279,31.264 L214.695,31.264 C214.233,31.264 214.168,31.436 214.168,31.897 L214.168,37.177 C214.168,37.639 214.233,37.811 214.695,37.811 L216.279,37.811 C216.741,37.811 216.807,37.639 216.807,37.177 L216.807,35.276 L215.487,35.276 L215.487,33.798 L218.391,33.798 L218.391,37.177 C218.391,38.761 217.863,39.289 216.279,39.289 L214.695,39.289 C213.111,39.289 212.584,38.761 212.584,37.177 L212.584,31.897 C212.584,30.314 213.111,29.786 214.695,29.786 L216.279,29.786 C217.863,29.786 218.391,30.314 218.391,31.897 L218.391,32.954 L216.807,32.954" id="Fill-45" fill="#49879A"></path>
                    <polygon id="Fill-46" fill="#49879A" points="220.834 39.289 222.418 39.289 222.418 29.786 220.834 29.786"></polygon>
                    <polyline id="Fill-47" fill="#49879A" points="226.575 31.264 226.575 33.798 230.138 33.798 230.138 35.276 226.575 35.276 226.575 37.811 230.27 37.811 230.27 39.289 224.991 39.289 224.991 29.786 230.27 29.786 230.27 31.264 226.575 31.264"></polyline>
                    <path d="M136.546,49.055 C136.546,48.88 136.653,48.758 136.829,48.758 L137.14,48.758 C137.302,48.758 137.424,48.88 137.424,49.055 L137.424,53.936 C137.424,54.112 137.302,54.233 137.14,54.233 L136.829,54.233 C136.653,54.233 136.546,54.112 136.546,53.936 L136.546,49.055 L136.546,49.055 Z M136.546,47.635 C136.546,47.46 136.653,47.338 136.829,47.338 L137.14,47.338 C137.302,47.338 137.424,47.46 137.424,47.635 L137.424,47.92 C137.424,48.095 137.302,48.217 137.14,48.217 L136.829,48.217 C136.653,48.217 136.546,48.095 136.546,47.92 L136.546,47.635 L136.546,47.635 Z" id="Fill-48" fill="#777776"></path>
                    <path d="M139.791,49.42 C140.211,48.676 140.778,48.676 141.359,48.676 C142.441,48.676 143.212,49.583 143.212,50.786 L143.212,53.936 C143.212,54.112 143.089,54.233 142.927,54.233 L142.617,54.233 C142.441,54.233 142.333,54.112 142.333,53.936 L142.333,50.962 C142.333,50.109 141.927,49.474 141.035,49.474 C140.211,49.474 139.697,50.109 139.697,50.962 L139.697,53.936 C139.697,54.112 139.575,54.233 139.413,54.233 L139.101,54.233 C138.925,54.233 138.818,54.112 138.818,53.936 L138.818,49.069 C138.818,48.893 138.885,48.744 139.061,48.744 L139.156,48.744 C139.182,48.744 139.264,48.744 139.358,48.88 L139.697,49.42 L139.791,49.42" id="Fill-49" fill="#777776"></path>
                    <path d="M150.516,51.015 C150.516,50.15 150.016,49.474 149.124,49.474 C148.286,49.474 147.88,49.853 147.88,51.043 L147.88,52.111 C147.88,52.962 148.286,53.517 149.177,53.517 C150.016,53.517 150.516,52.908 150.516,52.056 L150.516,51.015 L150.516,51.015 Z M151.395,53.99 C151.395,54.166 151.328,54.314 151.152,54.314 L151.057,54.314 C151.03,54.314 150.949,54.314 150.854,54.179 L150.516,53.638 L150.421,53.638 C150.273,53.963 149.718,54.314 148.921,54.314 C147.798,54.314 147.002,53.463 147.002,52.219 L147.002,50.907 C147.002,49.488 147.555,48.676 148.921,48.676 C149.258,48.676 150.003,48.704 150.421,49.461 L150.516,49.461 L150.516,46.595 C150.516,46.419 150.637,46.297 150.8,46.297 L151.111,46.297 C151.287,46.297 151.395,46.419 151.395,46.595 L151.395,53.99 L151.395,53.99 Z" id="Fill-50" fill="#777776"></path>
                    <path d="M156.069,50.934 C155.988,49.893 155.636,49.474 154.797,49.474 C153.987,49.474 153.594,49.853 153.513,50.934 L156.069,50.934 L156.069,50.934 Z M153.513,51.732 L153.513,52.056 C153.513,53.003 153.946,53.517 154.825,53.517 C155.311,53.517 155.785,53.489 155.988,53.111 C156.042,52.949 156.082,52.854 156.245,52.854 L156.677,52.854 C156.771,52.854 156.853,52.922 156.866,53.057 C156.664,53.99 155.92,54.314 154.825,54.314 C153.175,54.314 152.634,53.084 152.634,52.043 L152.634,50.948 C152.634,49.907 153.175,48.676 154.825,48.676 C156.164,48.676 156.947,49.609 156.947,50.934 L156.947,51.435 C156.947,51.597 156.839,51.732 156.664,51.732 L153.513,51.732 L153.513,51.732 Z" id="Fill-51" fill="#777776"></path>
                    <path d="M160.455,49.474 C159.793,49.474 159.036,50.218 159.036,51.462 L159.036,53.936 C159.036,54.112 158.914,54.233 158.752,54.233 L158.441,54.233 C158.265,54.233 158.157,54.112 158.157,53.936 L158.157,49.069 C158.157,48.906 158.252,48.758 158.427,48.758 L158.508,48.758 C158.536,48.758 158.589,48.771 158.63,48.812 L159.103,49.461 L159.184,49.461 C159.212,49.312 159.508,48.676 160.468,48.676 C160.685,48.676 161.104,48.676 161.334,48.771 C161.428,48.812 161.456,48.906 161.456,49.001 C161.456,49.055 161.442,49.096 161.428,49.163 L161.361,49.447 C161.32,49.515 161.239,49.583 161.118,49.583 C160.901,49.555 160.671,49.474 160.455,49.474" id="Fill-52" fill="#777776"></path>
                    <path d="M169.259,53.435 C169.421,53.435 169.556,53.557 169.556,53.719 L169.556,53.949 C169.556,54.125 169.421,54.233 169.259,54.233 L164.797,54.233 C164.635,54.233 164.501,54.125 164.501,53.949 L164.501,53.625 C164.501,53.625 164.528,53.53 164.554,53.489 L168.286,47.095 L164.797,47.095 C164.635,47.095 164.501,46.987 164.501,46.824 L164.501,46.581 C164.501,46.419 164.635,46.297 164.797,46.297 L169.259,46.297 C169.421,46.297 169.556,46.405 169.556,46.581 L169.556,46.649 C169.556,46.743 169.394,46.96 169.313,47.095 L165.595,53.435 L169.259,53.435" id="Fill-53" fill="#777776"></path>
                    <path d="M173.9,52.665 C173.9,52.029 173.278,51.718 172.656,51.718 C172.034,51.718 171.385,51.786 171.385,52.665 C171.385,52.962 171.534,53.517 172.656,53.517 C173.292,53.489 173.9,53.408 173.9,52.665 L173.9,52.665 Z M171.169,49.434 L171.115,49.015 C171.115,48.92 171.142,48.812 171.304,48.771 C171.723,48.717 172.466,48.676 172.723,48.676 C173.752,48.676 174.874,49.339 174.874,51.137 L174.874,53.99 C174.874,54.166 174.805,54.314 174.63,54.314 L174.535,54.314 C174.508,54.314 174.427,54.314 174.333,54.179 L173.995,53.638 L173.9,53.638 C173.657,54.138 173.075,54.314 172.359,54.314 C171.358,54.314 170.506,53.774 170.506,52.652 C170.506,52.097 170.601,50.907 172.413,50.907 C173.386,50.907 173.886,51.435 173.9,51.583 L173.995,51.583 L173.995,51.232 C173.995,49.704 173.075,49.474 172.373,49.474 C172.142,49.474 171.966,49.515 171.399,49.583 C171.291,49.583 171.182,49.501 171.169,49.434 L171.169,49.434 Z" id="Fill-54" fill="#777776"></path>
                    <path d="M180.625,50.786 L180.625,53.936 C180.625,54.112 180.504,54.233 180.34,54.233 L180.03,54.233 C179.854,54.233 179.746,54.112 179.746,53.936 L179.746,50.962 C179.746,50.109 179.34,49.474 178.448,49.474 C177.624,49.474 177.11,50.109 177.11,50.962 L177.11,53.936 C177.11,54.112 176.988,54.233 176.826,54.233 L176.515,54.233 C176.339,54.233 176.231,54.112 176.231,53.936 L176.231,46.595 C176.231,46.419 176.339,46.297 176.515,46.297 L176.826,46.297 C176.988,46.297 177.11,46.419 177.11,46.595 L177.11,49.42 L177.205,49.42 C177.624,48.676 178.191,48.676 178.773,48.676 C179.854,48.676 180.625,49.583 180.625,50.786" id="Fill-55" fill="#777776"></path>
                    <path d="M182.963,49.42 C183.381,48.676 183.949,48.676 184.531,48.676 C185.612,48.676 186.382,49.583 186.382,50.786 L186.382,53.936 C186.382,54.112 186.261,54.233 186.098,54.233 L185.788,54.233 C185.612,54.233 185.504,54.112 185.504,53.936 L185.504,50.962 C185.504,50.109 185.098,49.474 184.206,49.474 C183.381,49.474 182.868,50.109 182.868,50.962 L182.868,53.936 C182.868,54.112 182.746,54.233 182.584,54.233 L182.273,54.233 C182.097,54.233 181.989,54.112 181.989,53.936 L181.989,49.069 C181.989,48.893 182.056,48.744 182.232,48.744 L182.327,48.744 C182.354,48.744 182.435,48.744 182.53,48.88 L182.868,49.42 L182.963,49.42" id="Fill-56" fill="#777776"></path>
                    <path d="M188.026,52.219 C187.864,52.219 187.742,52.111 187.742,51.948 L187.742,51.705 C187.742,51.543 187.864,51.421 188.026,51.421 L191.013,51.421 C191.175,51.421 191.297,51.543 191.297,51.705 L191.297,51.948 C191.297,52.111 191.175,52.219 191.013,52.219 L188.026,52.219" id="Fill-57" fill="#777776"></path>
                    <path d="M192.948,54.828 C192.853,54.99 192.759,55.26 192.489,55.26 L192.367,55.26 C192.232,55.26 192.164,55.125 192.151,54.977 L192.421,53.774 C192.448,53.625 192.624,53.476 192.786,53.476 L193.124,53.476 C193.273,53.476 193.327,53.598 193.327,53.719 C193.327,53.76 193.327,53.8 193.313,53.841 L192.948,54.828" id="Fill-58" fill="#777776"></path>
                    <path d="M200.007,50.096 L202.212,46.473 C202.265,46.365 202.374,46.297 202.482,46.297 L202.658,46.297 C202.82,46.297 202.941,46.432 202.941,46.595 L202.941,53.936 C202.941,54.112 202.82,54.233 202.658,54.233 L202.346,54.233 C202.184,54.233 202.062,54.112 202.062,53.936 L202.062,48.623 L201.927,48.623 L200.238,51.407 C200.17,51.502 200.075,51.664 199.954,51.664 L199.899,51.664 C199.778,51.664 199.683,51.502 199.616,51.407 L197.925,48.623 L197.791,48.623 L197.791,53.936 C197.791,54.112 197.669,54.233 197.506,54.233 L197.196,54.233 C197.034,54.233 196.912,54.112 196.912,53.936 L196.912,46.595 C196.912,46.432 197.034,46.297 197.196,46.297 L197.372,46.297 C197.479,46.297 197.588,46.365 197.642,46.473 L199.845,50.096 L200.007,50.096" id="Fill-59" fill="#777776"></path>
                    <path d="M207.73,53.57 C207.311,54.314 206.744,54.314 206.162,54.314 C205.081,54.314 204.31,53.408 204.31,52.205 L204.31,49.055 C204.31,48.88 204.431,48.758 204.593,48.758 L204.905,48.758 C205.081,48.758 205.189,48.88 205.189,49.055 L205.189,52.029 C205.189,52.881 205.594,53.517 206.487,53.517 C207.311,53.517 207.825,52.881 207.825,52.029 L207.825,49.055 C207.825,48.88 207.947,48.758 208.109,48.758 L208.42,48.758 C208.595,48.758 208.704,48.88 208.704,49.055 L208.704,53.909 C208.704,54.084 208.636,54.233 208.461,54.233 L208.366,54.233 C208.338,54.233 208.257,54.233 208.163,54.098 L207.825,53.57 L207.73,53.57" id="Fill-60" fill="#777776"></path>
                    <path d="M211.086,49.42 C211.505,48.676 212.072,48.676 212.654,48.676 C213.735,48.676 214.505,49.583 214.505,50.786 L214.505,53.936 C214.505,54.112 214.384,54.233 214.221,54.233 L213.911,54.233 C213.735,54.233 213.627,54.112 213.627,53.936 L213.627,50.962 C213.627,50.109 213.221,49.474 212.329,49.474 C211.505,49.474 210.991,50.109 210.991,50.962 L210.991,53.936 C210.991,54.112 210.869,54.233 210.707,54.233 L210.396,54.233 C210.22,54.233 210.112,54.112 210.112,53.936 L210.112,49.069 C210.112,48.893 210.179,48.744 210.355,48.744 L210.45,48.744 C210.477,48.744 210.558,48.744 210.653,48.88 L210.991,49.42 L211.086,49.42" id="Fill-61" fill="#777776"></path>
                    <path d="M219.26,51.015 C219.26,50.15 218.76,49.474 217.868,49.474 C217.03,49.474 216.624,49.853 216.624,51.043 L216.624,52.111 C216.624,52.962 217.03,53.517 217.921,53.517 C218.76,53.517 219.26,52.908 219.26,52.056 L219.26,51.015 L219.26,51.015 Z M220.139,53.99 C220.139,54.166 220.072,54.314 219.896,54.314 L219.801,54.314 C219.774,54.314 219.693,54.314 219.598,54.179 L219.26,53.638 L219.166,53.638 C219.017,53.963 218.462,54.314 217.665,54.314 C216.543,54.314 215.746,53.463 215.746,52.219 L215.746,50.907 C215.746,49.488 216.299,48.676 217.665,48.676 C218.003,48.676 218.747,48.704 219.166,49.461 L219.26,49.461 L219.26,46.595 C219.26,46.419 219.381,46.297 219.545,46.297 L219.855,46.297 C220.031,46.297 220.139,46.419 220.139,46.595 L220.139,53.99 L220.139,53.99 Z" id="Fill-62" fill="#777776"></path>
                    <path d="M221.817,52.219 C221.655,52.219 221.533,52.111 221.533,51.948 L221.533,51.705 C221.533,51.543 221.655,51.421 221.817,51.421 L224.804,51.421 C224.966,51.421 225.088,51.543 225.088,51.705 L225.088,51.948 C225.088,52.111 224.966,52.219 224.804,52.219 L221.817,52.219" id="Fill-63" fill="#777776"></path>
                    <path d="M232.501,53.57 C232.082,54.314 231.514,54.314 230.932,54.314 C229.851,54.314 229.081,53.408 229.081,52.205 L229.081,49.055 C229.081,48.88 229.202,48.758 229.364,48.758 L229.675,48.758 C229.851,48.758 229.96,48.88 229.96,49.055 L229.96,52.029 C229.96,52.881 230.365,53.517 231.257,53.517 C232.082,53.517 232.595,52.881 232.595,52.029 L232.595,49.055 C232.595,48.88 232.717,48.758 232.879,48.758 L233.19,48.758 C233.366,48.758 233.474,48.88 233.474,49.055 L233.474,53.909 C233.474,54.084 233.407,54.233 233.231,54.233 L233.136,54.233 C233.109,54.233 233.028,54.233 232.933,54.098 L232.595,53.57 L232.501,53.57" id="Fill-64" fill="#777776"></path>
                    <path d="M235.857,49.42 C236.276,48.676 236.843,48.676 237.425,48.676 C238.506,48.676 239.277,49.583 239.277,50.786 L239.277,53.936 C239.277,54.112 239.156,54.233 238.993,54.233 L238.682,54.233 C238.506,54.233 238.398,54.112 238.398,53.936 L238.398,50.962 C238.398,50.109 237.993,49.474 237.1,49.474 C236.276,49.474 235.762,50.109 235.762,50.962 L235.762,53.936 C235.762,54.112 235.64,54.233 235.478,54.233 L235.168,54.233 C234.992,54.233 234.883,54.112 234.883,53.936 L234.883,49.069 C234.883,48.893 234.951,48.744 235.127,48.744 L235.221,48.744 C235.249,48.744 235.33,48.744 235.424,48.88 L235.762,49.42 L235.857,49.42" id="Fill-65" fill="#777776"></path>
                    <path d="M244.032,51.015 C244.032,50.15 243.532,49.474 242.639,49.474 C241.801,49.474 241.395,49.853 241.395,51.043 L241.395,52.111 C241.395,52.962 241.801,53.517 242.693,53.517 C243.532,53.517 244.032,52.908 244.032,52.056 L244.032,51.015 L244.032,51.015 Z M244.911,53.99 C244.911,54.166 244.843,54.314 244.668,54.314 L244.573,54.314 C244.546,54.314 244.464,54.314 244.37,54.179 L244.032,53.638 L243.937,53.638 C243.789,53.963 243.234,54.314 242.436,54.314 C241.314,54.314 240.517,53.463 240.517,52.219 L240.517,50.907 C240.517,49.488 241.071,48.676 242.436,48.676 C242.774,48.676 243.518,48.704 243.937,49.461 L244.032,49.461 L244.032,46.595 C244.032,46.419 244.153,46.297 244.316,46.297 L244.627,46.297 C244.802,46.297 244.911,46.419 244.911,46.595 L244.911,53.99 L244.911,53.99 Z" id="Fill-66" fill="#777776"></path>
                    <path d="M252.011,49.082 L252.011,49.447 L254.309,53.99 C254.309,54.166 254.147,54.233 254.066,54.233 L253.823,54.233 C253.633,54.233 253.444,54.192 253.323,53.949 L251.268,49.947 L249.781,51.624 L249.781,53.936 C249.781,54.112 249.672,54.233 249.497,54.233 L249.172,54.233 C249.01,54.233 248.902,54.112 248.902,53.936 L248.902,46.595 C248.902,46.432 249.01,46.297 249.172,46.297 L249.497,46.297 C249.672,46.297 249.781,46.432 249.781,46.595 L249.781,50.177 L249.889,50.177 L253.147,46.473 C253.282,46.351 253.39,46.297 253.62,46.297 L253.971,46.297 C254.093,46.297 254.202,46.365 254.215,46.554 L252.011,49.082" id="Fill-67" fill="#777776"></path>
                    <path d="M255.41,49.055 C255.41,48.88 255.518,48.758 255.694,48.758 L256.004,48.758 C256.167,48.758 256.289,48.88 256.289,49.055 L256.289,53.936 C256.289,54.112 256.167,54.233 256.004,54.233 L255.694,54.233 C255.518,54.233 255.41,54.112 255.41,53.936 L255.41,49.055 L255.41,49.055 Z M255.41,47.635 C255.41,47.46 255.518,47.338 255.694,47.338 L256.004,47.338 C256.167,47.338 256.289,47.46 256.289,47.635 L256.289,47.92 C256.289,48.095 256.167,48.217 256.004,48.217 L255.694,48.217 C255.518,48.217 255.41,48.095 255.41,47.92 L255.41,47.635 L255.41,47.635 Z" id="Fill-68" fill="#777776"></path>
                    <path d="M260.947,50.934 C260.866,49.893 260.514,49.474 259.675,49.474 C258.865,49.474 258.472,49.853 258.391,50.934 L260.947,50.934 L260.947,50.934 Z M258.391,51.732 L258.391,52.056 C258.391,53.003 258.824,53.517 259.703,53.517 C260.189,53.517 260.663,53.489 260.866,53.111 C260.92,52.949 260.96,52.854 261.123,52.854 L261.555,52.854 C261.649,52.854 261.731,52.922 261.744,53.057 C261.542,53.99 260.797,54.314 259.703,54.314 C258.053,54.314 257.512,53.084 257.512,52.043 L257.512,50.948 C257.512,49.907 258.053,48.676 259.703,48.676 C261.041,48.676 261.825,49.609 261.825,50.934 L261.825,51.435 C261.825,51.597 261.717,51.732 261.542,51.732 L258.391,51.732 L258.391,51.732 Z" id="Fill-69" fill="#777776"></path>
                    <path d="M265.924,47.095 C265.275,47.095 264.761,47.149 264.761,48.758 L266.154,48.758 C266.316,48.758 266.451,48.866 266.451,49.042 L266.451,49.272 C266.451,49.447 266.316,49.555 266.154,49.555 L264.789,49.555 L264.789,53.936 C264.789,54.112 264.667,54.233 264.504,54.233 L264.194,54.233 C264.018,54.233 263.91,54.112 263.91,53.936 L263.91,49.555 L262.882,49.555 C262.707,49.555 262.585,49.447 262.585,49.272 L262.585,49.042 C262.585,48.866 262.707,48.758 262.882,48.758 L263.91,48.758 C263.977,46.567 264.815,46.297 265.83,46.297 C266.1,46.297 266.451,46.338 266.709,46.392 C266.816,46.419 266.871,46.513 266.871,46.608 C266.871,46.662 266.871,46.73 266.762,47.014 C266.735,47.081 266.654,47.149 266.559,47.149 C266.438,47.149 266.302,47.095 265.924,47.095" id="Fill-70" fill="#777776"></path>
                    <path d="M270.733,50.934 C270.652,49.893 270.3,49.474 269.462,49.474 C268.651,49.474 268.258,49.853 268.177,50.934 L270.733,50.934 L270.733,50.934 Z M268.177,51.732 L268.177,52.056 C268.177,53.003 268.61,53.517 269.489,53.517 C269.975,53.517 270.449,53.489 270.652,53.111 C270.706,52.949 270.746,52.854 270.909,52.854 L271.341,52.854 C271.435,52.854 271.517,52.922 271.53,53.057 C271.328,53.99 270.584,54.314 269.489,54.314 C267.839,54.314 267.298,53.084 267.298,52.043 L267.298,50.948 C267.298,49.907 267.839,48.676 269.489,48.676 C270.828,48.676 271.611,49.609 271.611,50.934 L271.611,51.435 C271.611,51.597 271.504,51.732 271.328,51.732 L268.177,51.732 L268.177,51.732 Z" id="Fill-71" fill="#777776"></path>
                    <path d="M275.119,49.474 C274.457,49.474 273.7,50.218 273.7,51.462 L273.7,53.936 C273.7,54.112 273.578,54.233 273.416,54.233 L273.105,54.233 C272.929,54.233 272.821,54.112 272.821,53.936 L272.821,49.069 C272.821,48.906 272.916,48.758 273.091,48.758 L273.172,48.758 C273.2,48.758 273.254,48.771 273.294,48.812 L273.767,49.461 L273.848,49.461 C273.876,49.312 274.172,48.676 275.132,48.676 C275.349,48.676 275.768,48.676 275.998,48.771 C276.092,48.812 276.12,48.906 276.12,49.001 C276.12,49.055 276.106,49.096 276.092,49.163 L276.025,49.447 C275.984,49.515 275.903,49.583 275.782,49.583 C275.565,49.555 275.336,49.474 275.119,49.474" id="Fill-72" fill="#777776"></path>
                    <path d="M281.504,50.786 L281.504,53.936 C281.504,54.112 281.382,54.233 281.219,54.233 L280.909,54.233 C280.733,54.233 280.625,54.112 280.625,53.936 L280.625,50.962 C280.625,50.109 280.219,49.474 279.327,49.474 C278.503,49.474 277.989,50.109 277.989,50.962 L277.989,53.936 C277.989,54.112 277.867,54.233 277.705,54.233 L277.394,54.233 C277.218,54.233 277.11,54.112 277.11,53.936 L277.11,46.595 C277.11,46.419 277.218,46.297 277.394,46.297 L277.705,46.297 C277.867,46.297 277.989,46.419 277.989,46.595 L277.989,49.42 L278.084,49.42 C278.503,48.676 279.07,48.676 279.652,48.676 C280.733,48.676 281.504,49.583 281.504,50.786" id="Fill-73" fill="#777776"></path>
                    <path d="M286.114,50.934 C286.033,49.893 285.681,49.474 284.842,49.474 C284.032,49.474 283.639,49.853 283.558,50.934 L286.114,50.934 L286.114,50.934 Z M283.558,51.732 L283.558,52.056 C283.558,53.003 283.991,53.517 284.87,53.517 C285.356,53.517 285.83,53.489 286.033,53.111 C286.087,52.949 286.127,52.854 286.29,52.854 L286.722,52.854 C286.816,52.854 286.898,52.922 286.911,53.057 C286.709,53.99 285.964,54.314 284.87,54.314 C283.22,54.314 282.679,53.084 282.679,52.043 L282.679,50.948 C282.679,49.907 283.22,48.676 284.87,48.676 C286.209,48.676 286.992,49.609 286.992,50.934 L286.992,51.435 C286.992,51.597 286.884,51.732 286.709,51.732 L283.558,51.732 L283.558,51.732 Z" id="Fill-74" fill="#777776"></path>
                    <path d="M288.203,49.055 C288.203,48.88 288.311,48.758 288.487,48.758 L288.797,48.758 C288.96,48.758 289.082,48.88 289.082,49.055 L289.082,53.936 C289.082,54.112 288.96,54.233 288.797,54.233 L288.487,54.233 C288.311,54.233 288.203,54.112 288.203,53.936 L288.203,49.055 L288.203,49.055 Z M288.203,47.635 C288.203,47.46 288.311,47.338 288.487,47.338 L288.797,47.338 C288.96,47.338 289.082,47.46 289.082,47.635 L289.082,47.92 C289.082,48.095 288.96,48.217 288.797,48.217 L288.487,48.217 C288.311,48.217 288.203,48.095 288.203,47.92 L288.203,47.635 L288.203,47.635 Z" id="Fill-75" fill="#777776"></path>
                    <path d="M290.475,46.595 C290.475,46.419 290.584,46.297 290.759,46.297 L291.07,46.297 C291.232,46.297 291.354,46.419 291.354,46.595 L291.354,53.936 C291.354,54.112 291.232,54.233 291.07,54.233 L290.759,54.233 C290.584,54.233 290.475,54.112 290.475,53.936 L290.475,46.595" id="Fill-76" fill="#777776"></path>
                    <path d="M295.29,50.867 L295.29,51.056 L297.29,53.99 C297.29,54.152 297.182,54.233 297.074,54.233 L296.681,54.233 C296.479,54.233 296.357,54.192 296.209,53.963 L294.559,51.556 L293.627,52.422 L293.627,53.936 C293.627,54.112 293.504,54.233 293.342,54.233 L293.045,54.233 C292.87,54.233 292.748,54.112 292.748,53.936 L292.748,46.595 C292.748,46.419 292.87,46.297 293.045,46.297 L293.342,46.297 C293.504,46.297 293.627,46.419 293.627,46.595 L293.627,51.11 L293.748,51.11 L296.1,48.92 C296.262,48.785 296.343,48.758 296.546,48.758 L297.006,48.758 C297.114,48.758 297.209,48.839 297.209,49.042 L295.29,50.867" id="Fill-77" fill="#777776"></path>
                    <path d="M301.694,53.57 C301.275,54.314 300.708,54.314 300.126,54.314 C299.045,54.314 298.274,53.408 298.274,52.205 L298.274,49.055 C298.274,48.88 298.395,48.758 298.557,48.758 L298.869,48.758 C299.045,48.758 299.153,48.88 299.153,49.055 L299.153,52.029 C299.153,52.881 299.558,53.517 300.451,53.517 C301.275,53.517 301.789,52.881 301.789,52.029 L301.789,49.055 C301.789,48.88 301.911,48.758 302.073,48.758 L302.383,48.758 C302.559,48.758 302.668,48.88 302.668,49.055 L302.668,53.909 C302.668,54.084 302.6,54.233 302.424,54.233 L302.33,54.233 C302.302,54.233 302.221,54.233 302.127,54.098 L301.789,53.57 L301.694,53.57" id="Fill-78" fill="#777776"></path>
                    <path d="M305.049,49.42 C305.468,48.676 306.036,48.676 306.618,48.676 C307.699,48.676 308.469,49.583 308.469,50.786 L308.469,53.936 C308.469,54.112 308.348,54.233 308.185,54.233 L307.875,54.233 C307.699,54.233 307.59,54.112 307.59,53.936 L307.59,50.962 C307.59,50.109 307.185,49.474 306.293,49.474 C305.468,49.474 304.955,50.109 304.955,50.962 L304.955,53.936 C304.955,54.112 304.833,54.233 304.671,54.233 L304.36,54.233 C304.184,54.233 304.076,54.112 304.076,53.936 L304.076,49.069 C304.076,48.893 304.143,48.744 304.319,48.744 L304.414,48.744 C304.441,48.744 304.522,48.744 304.617,48.88 L304.955,49.42 L305.049,49.42" id="Fill-79" fill="#777776"></path>
                    <path d="M313.224,51.015 C313.224,50.15 312.724,49.474 311.832,49.474 C310.994,49.474 310.587,49.853 310.587,51.043 L310.587,52.111 C310.587,52.962 310.994,53.517 311.885,53.517 C312.724,53.517 313.224,52.908 313.224,52.056 L313.224,51.015 L313.224,51.015 Z M314.103,53.99 C314.103,54.166 314.035,54.314 313.86,54.314 L313.765,54.314 C313.738,54.314 313.657,54.314 313.562,54.179 L313.224,53.638 L313.129,53.638 C312.981,53.963 312.426,54.314 311.629,54.314 C310.506,54.314 309.709,53.463 309.709,52.219 L309.709,50.907 C309.709,49.488 310.263,48.676 311.629,48.676 C311.966,48.676 312.711,48.704 313.129,49.461 L313.224,49.461 L313.224,46.595 C313.224,46.419 313.345,46.297 313.508,46.297 L313.819,46.297 C313.995,46.297 314.103,46.419 314.103,46.595 L314.103,53.99 L314.103,53.99 Z" id="Fill-80" fill="#777776"></path>
                    <path d="M318.777,50.934 C318.696,49.893 318.344,49.474 317.505,49.474 C316.695,49.474 316.302,49.853 316.221,50.934 L318.777,50.934 L318.777,50.934 Z M316.221,51.732 L316.221,52.056 C316.221,53.003 316.654,53.517 317.533,53.517 C318.019,53.517 318.493,53.489 318.696,53.111 C318.75,52.949 318.79,52.854 318.953,52.854 L319.385,52.854 C319.479,52.854 319.561,52.922 319.574,53.057 C319.372,53.99 318.628,54.314 317.533,54.314 C315.883,54.314 315.342,53.084 315.342,52.043 L315.342,50.948 C315.342,49.907 315.883,48.676 317.533,48.676 C318.871,48.676 319.655,49.609 319.655,50.934 L319.655,51.435 C319.655,51.597 319.547,51.732 319.372,51.732 L316.221,51.732 L316.221,51.732 Z" id="Fill-81" fill="#777776"></path>
                </g>
            </g>
        </g>
    </g>
</svg>